<svg width="96" height="96" viewBox="0 0 96 96" fill="none" xmlns="http://www.w3.org/2000/svg">
<g id="Group 20">
<path id="Intersect" d="M51.6306 18.3007L51.6304 18.26C51.6304 16.3 49.9802 14.6666 48 14.6666C46.0198 14.6666 44.3696 16.3 44.3696 18.26L44.3694 18.3009C44.3279 23.9222 42.4658 29.0945 39.3457 33.2864C39.0508 33.6826 38.7446 34.0701 38.4278 34.4483C37.3426 35.7435 36.1313 36.9307 34.8127 37.992C34.4574 38.278 34.0943 38.5549 33.7238 38.8222C29.3945 41.9461 24.0538 43.7729 18.297 43.74L18.2545 43.7402C16.2932 43.7634 14.6667 45.3874 14.6667 47.3333C14.6667 49.2792 16.2932 50.9032 18.2545 50.9264L18.297 50.9266C24.0437 50.8937 29.3758 52.7273 33.7011 55.8517C34.0758 56.1224 34.443 56.4028 34.8022 56.6925C36.117 57.7527 37.3254 58.9378 38.4085 60.2293C38.7276 60.6099 39.0359 60.9997 39.3329 61.3983C42.4607 65.597 44.3278 70.7692 44.3694 76.3659L44.3696 76.4066C44.3696 78.3666 46.0198 80 48 80C49.9802 80 51.6304 78.3666 51.6304 76.4066L51.6306 76.3657C51.6721 70.7444 53.5342 65.5721 56.6543 61.3801C56.9492 60.9839 57.2554 60.5965 57.5723 60.2183C58.6574 58.9231 59.8688 57.7358 61.1873 56.6746C61.5426 56.3886 61.9057 56.1117 62.2762 55.8444C66.6055 52.7204 71.9462 50.8937 77.703 50.9266L77.7455 50.9264C79.7068 50.9032 81.3333 49.2792 81.3333 47.3333C81.3333 45.3874 79.7068 43.7634 77.7455 43.7402L77.703 43.74C71.9563 43.7728 66.6242 41.9393 62.2989 38.8149C61.9242 38.5442 61.557 38.2638 61.1978 37.9741C59.883 36.9138 58.6747 35.7288 57.5916 34.4373C57.2724 34.0567 56.9641 33.6669 56.6671 33.2683C53.5393 29.0695 51.6722 23.8974 51.6306 18.3007Z" fill="white"/>
<path id="Intersect_2" fill-rule="evenodd" clip-rule="evenodd" d="M96 48C96 50.934 93.6784 53.2812 90.7763 53.2812C70.1717 53.1638 53.3978 69.8875 53.2237 90.7188C53.2237 93.6528 50.9021 96 48 96C45.0979 96 42.7763 93.6528 42.7763 90.7188C42.6022 69.8875 25.8283 53.1638 5.2237 53.2812C2.32165 53.2812 0 50.934 0 48C0 45.066 2.32165 42.7188 5.2237 42.7188C25.8283 42.8362 42.6022 26.1125 42.7763 5.28117C42.7763 2.34719 45.0979 -1.27322e-07 48 0C50.9021 1.27326e-07 53.2237 2.34719 53.2237 5.28117C53.3978 26.0538 70.1717 42.8362 90.7763 42.7188C93.6784 42.7188 96 45.066 96 48ZM20.9039 48C33.46 43.4045 43.4173 33.3688 48.0044 20.7125C52.5959 33.3498 62.5506 43.3953 75.1048 47.9968C62.5486 52.5894 52.5901 62.6219 48 75.2754C43.411 62.6248 33.456 52.5941 20.9039 48Z" fill="#FFA800"/>
</g>
</svg>
