<svg width="15" height="15" viewBox="0 0 15 15" fill="none" xmlns="http://www.w3.org/2000/svg">
<path id="Vector" d="M8.87423 7.49996L14.7149 1.65908C15.095 1.27915 15.095 0.664869 14.7149 0.284944C14.335 -0.0949812 13.7207 -0.0949812 13.3408 0.284944L7.49992 6.12582L1.65921 0.284944C1.27911 -0.0949812 0.665002 -0.0949812 0.285077 0.284944C-0.0950258 0.664869 -0.0950258 1.27915 0.285077 1.65908L6.12578 7.49996L0.285077 13.3408C-0.0950258 13.7208 -0.0950258 14.335 0.285077 14.715C0.474417 14.9045 0.72337 14.9997 0.972146 14.9997C1.22092 14.9997 1.4697 14.9045 1.65921 14.715L7.49992 8.87409L13.3408 14.715C13.5303 14.9045 13.7791 14.9997 14.0279 14.9997C14.2766 14.9997 14.5254 14.9045 14.7149 14.715C15.095 14.335 15.095 13.7208 14.7149 13.3408L8.87423 7.49996Z" fill="black"/>
</svg>
